<?xml version="1.0" encoding="utf-8"?>
<!-- Generator: Adobe Illustrator 23.0.3, SVG Export Plug-In . SVG Version: 6.00 Build 0)  -->
<svg version="1.1" id="Layer_1" xmlns="http://www.w3.org/2000/svg" xmlns:xlink="http://www.w3.org/1999/xlink" x="0px" y="0px"
	 viewBox="0 0 500 500" style="enable-background:new 0 0 500 500;" xml:space="preserve">
<style type="text/css">
	.st0{clip-path:url(#SVGID_2_);fill:#90FF3F;}
	.st1{clip-path:url(#SVGID_2_);fill:#FF9600;}
	.st2{clip-path:url(#SVGID_2_);}
	.st3{clip-path:url(#SVGID_2_);fill:none;stroke:#AB40FF;stroke-width:5.6693;}
	.st4{clip-path:url(#SVGID_2_);fill:#40FFEC;}
	.st5{clip-path:url(#SVGID_2_);fill:#0EFF0E;}
	.st6{clip-path:url(#SVGID_2_);fill:#FFFFFF;}
</style>
<g>
	<defs>
		<path id="SVGID_1_" d="M423.1,500H76.9C34.6,500,0,465.4,0,423.1V76.9C0,34.6,34.6,0,76.9,0h346.2C465.4,0,500,34.6,500,76.9
			v346.2C500,465.4,465.4,500,423.1,500z"/>
	</defs>
	<clipPath id="SVGID_2_">
		<use xlink:href="#SVGID_1_"  style="overflow:visible;"/>
	</clipPath>
	<circle class="st0" cx="325" cy="402.5" r="40"/>
	<circle class="st1" cx="139.5" cy="384.3" r="29.1"/>
	<path class="st2" d="M326.6,204.6c-12.7-22.2-30-39.6-51.8-52.4c-21.8-12.7-46.2-19.1-73.1-19.1c-26.9,0-51.4,6.4-73.6,19.1
		C106,165,88.6,182.5,76,204.6c-12.6,22.2-18.9,46.9-18.9,74.1c0,27.2,5.8,51.9,17.5,74.1c5.9,11.3,13,21.3,21.2,30.1
		c0.6-20.1,14.8-36.7,33.7-41.1c-3.2-4.1-6.2-8.4-8.8-13.1c-8.2-14.8-12.3-31.5-12.3-50c0-18.5,4.1-35.3,12.3-50.3
		c8.2-15,19.4-26.8,33.5-35.4c14.1-8.5,29.9-12.8,47.4-12.8c17.5,0,33.3,4.3,47.4,12.8c14.1,8.6,25.2,20.3,33.3,35.4
		c8,15,12,31.8,12,50.3c0,18.5-4,35.2-12,50c-8,14.8-19.1,26.5-33.3,35.1c-14.1,8.6-29.9,12.8-47.4,12.8c-6.8,0-13.4-0.9-19.7-2.2
		c0.7,3.2,1.1,6.4,1.1,9.8c0,15.4-8,28.9-20,36.7c9,1.9,18.4,2.8,28.1,2.8c20.2,0,39.1-4.2,56.6-12.6c17.5-8.4,32.3-20.1,44.5-35.1
		v19.4c0,7.7,2.5,14.1,7.6,19.1c5.1,5.1,11.4,7.6,19.1,7.6c7.7,0,14-2.5,19.1-7.6c5.1-5.1,7.6-11.4,7.6-19.1V278.8
		C345.7,251.5,339.4,226.8,326.6,204.6z"/>
	<path class="st2" d="M401.9,358.5c-12-8.2-21.4-19.7-28-34.6c-6.6-14.8-10-31.5-10-50V89.8c0-7.7,2.4-14,7.3-18.9
		c4.9-4.9,11.2-7.3,18.9-7.3c7.7,0,14,2.4,18.9,7.3c4.9,4.9,7.3,11.2,7.3,18.9v184.1c0,12.9,2.4,23.6,7.3,31.9
		c4.9,8.4,11.2,12.6,18.9,12.6h13.1c7,0,12.7,2.4,17,7.3c4.4,4.9,6.5,11.2,6.5,18.9c0,7.7-3.3,14-9.9,18.9
		c-6.6,4.9-15.2,7.3-25.7,7.3h-1C427.5,370.8,414,366.7,401.9,358.5z"/>
	<path class="st3" d="M329.2,416.7c-12-8.2-21.4-19.7-28-34.6c-6.6-14.8-10-31.5-10-50V148c0-7.7,2.4-14,7.3-18.9
		c4.9-4.9,11.2-7.3,18.9-7.3c7.7,0,14,2.4,18.9,7.3c4.9,4.9,7.3,11.2,7.3,18.9v184.1c0,12.9,2.4,23.6,7.3,31.9
		c4.9,8.4,11.2,12.6,18.9,12.6h13.1c7,0,12.7,2.4,17,7.3c4.4,4.9,6.5,11.2,6.5,18.9c0,7.7-3.3,14-9.9,18.9
		c-6.6,4.9-15.2,7.3-25.7,7.3h-1C354.7,429,341.2,424.9,329.2,416.7z"/>
	<circle class="st4" cx="390.5" cy="82.5" r="25.5"/>
	<circle class="st5" cx="201.4" cy="278.8" r="69.1"/>
	<path class="st6" d="M224.2,231.6v28.1l-33,18.9l33,18.9v27.9l-62.9-35.2v-23.5L224.2,231.6z"/>
</g>
</svg>
